HIERARCHY
ROOT newVegas:Hips
{
	OFFSET 0.000000 96.479958 0.000000
	CHANNELS 6 Xposition Yposition Zposition Xrotation Yrotation Zrotation
	JOINT newVegas:Pelvis
	{
		OFFSET 0.000000 0.000000 0.000000
		CHANNELS 3 Xrotation Yrotation Zrotation
		JOINT newVegas:LeftUpLeg
		{
			OFFSET 18.735201 -5.666702 -4.541200
			CHANNELS 3 Xrotation Yrotation Zrotation
			JOINT newVegas:LeftLeg
			{
				OFFSET -0.021200 -31.938179 0.493100
				CHANNELS 3 Xrotation Yrotation Zrotation
				JOINT newVegas:LeftFoot
				{
					OFFSET 0.021200 -31.938179 -4.336299
					CHANNELS 3 Xrotation Yrotation Zrotation
					JOINT newVegas:LeftToeBase
					{
						OFFSET 0.943001 -26.722000 15.023500
						CHANNELS 3 Xrotation Yrotation Zrotation
						End Site
						{
							OFFSET 0.000000 30.670183 0.000000
						}
					}
				}
				JOINT newVegas:Left_PantLeg
				{
					OFFSET 0.663870 -9.044666 -1.108900
					CHANNELS 3 Xrotation Yrotation Zrotation
					End Site
					{
						OFFSET 1.415995 20.635357 0.000000
					}
				}
			}
		}
		JOINT newVegas:RightUpLeg
		{
			OFFSET -18.735201 -5.666702 -4.541200
			CHANNELS 3 Xrotation Yrotation Zrotation
			JOINT newVegas:RightLeg
			{
				OFFSET 0.018946 -31.938133 0.493100
				CHANNELS 3 Xrotation Yrotation Zrotation
				JOINT newVegas:RightFoot
				{
					OFFSET -0.018946 -31.938126 -4.336299
					CHANNELS 3 Xrotation Yrotation Zrotation
					JOINT newVegas:RightToeBase
					{
						OFFSET -0.943001 -26.722004 15.023500
						CHANNELS 3 Xrotation Yrotation Zrotation
						End Site
						{
							OFFSET 0.000000 30.670187 0.000000
						}
					}
				}
				JOINT newVegas:Right_PantLeg
				{
					OFFSET -0.661674 -9.044716 -1.108900
					CHANNELS 3 Xrotation Yrotation Zrotation
					End Site
					{
						OFFSET -1.415958 20.635269 0.000000
					}
				}
			}
		}
	}
	JOINT newVegas:Spine
	{
		OFFSET 0.000000 10.199997 -0.299500
		CHANNELS 3 Xrotation Yrotation Zrotation
		JOINT newVegas:Spine1
		{
			OFFSET 0.000000 11.900002 -1.516600
			CHANNELS 3 Xrotation Yrotation Zrotation
			JOINT newVegas:Spine2
			{
				OFFSET 0.000000 13.600006 -2.842500
				CHANNELS 3 Xrotation Yrotation Zrotation
				JOINT newVegas:Neck
				{
					OFFSET 0.000000 9.624100 -2.890100
					CHANNELS 3 Xrotation Yrotation Zrotation
					JOINT newVegas:Head
					{
						OFFSET 0.000000 14.068802 -1.351900
						CHANNELS 3 Xrotation Yrotation Zrotation
						JOINT newVegas:Hair_Back
						{
							OFFSET 0.000000 3.231903 -17.524799
							CHANNELS 3 Xrotation Yrotation Zrotation
							End Site
							{
								OFFSET 0.000000 19.849884 0.000000
							}
						}
						JOINT newVegas:Hair_Front
						{
							OFFSET 0.000000 31.260406 4.573800
							CHANNELS 3 Xrotation Yrotation Zrotation
							JOINT newVegas:Hair_Front1
							{
								OFFSET 0.000000 2.284103 11.993300
								CHANNELS 3 Xrotation Yrotation Zrotation
								JOINT newVegas:Hair_Front2
								{
									OFFSET 0.000000 2.284103 11.993300
									CHANNELS 3 Xrotation Yrotation Zrotation
									End Site
									{
										OFFSET 0.000000 12.208862 0.000000
									}
								}
							}
						}
						JOINT newVegas:Jowel
						{
							OFFSET 0.000000 -7.458206 6.864100
							CHANNELS 3 Xrotation Yrotation Zrotation
							End Site
							{
								OFFSET 0.000000 19.849884 0.000000
							}
						}
					}
				}
				JOINT newVegas:LeftShoulder
				{
					OFFSET 15.263000 10.923401 -0.547700
					CHANNELS 3 Xrotation Yrotation Zrotation
					JOINT newVegas:LeftArm
					{
						OFFSET 25.438599 -2.830597 -13.032500
						CHANNELS 3 Xrotation Yrotation Zrotation
						JOINT newVegas:LeftForeArm
						{
							OFFSET 29.960503 0.000000 0.000000
							CHANNELS 3 Xrotation Yrotation Zrotation
							JOINT newVegas:LeftHand
							{
								OFFSET 27.849251 0.000000 0.000000
								CHANNELS 3 Xrotation Yrotation Zrotation
								JOINT newVegas:LeftHandThumb1
								{
									OFFSET 4.487587 -3.305161 6.305391
									CHANNELS 3 Xrotation Yrotation Zrotation
									JOINT newVegas:LeftHandThumb2
									{
										OFFSET 5.480453 -3.164139 3.164143
										CHANNELS 3 Xrotation Yrotation Zrotation
										JOINT newVegas:LeftHandThumb3
										{
											OFFSET 5.159721 -2.978973 2.978967
											CHANNELS 3 Xrotation Yrotation Zrotation
											End Site
											{
												OFFSET 2.494507 5.926697 1.738678
											}
										}
									}
								}
								JOINT newVegas:LeftHandIndex1
								{
									OFFSET 18.578728 -0.527832 5.208049
									CHANNELS 3 Xrotation Yrotation Zrotation
									JOINT newVegas:LeftHandIndex2
									{
										OFFSET 3.192009 0.000000 0.000000
										CHANNELS 3 Xrotation Yrotation Zrotation
										JOINT newVegas:LeftHandIndex3
										{
											OFFSET 3.835129 0.000000 0.000000
											CHANNELS 3 Xrotation Yrotation Zrotation
											End Site
											{
												OFFSET -0.034599 3.816971 0.371180
											}
										}
									}
								}
								JOINT newVegas:LeftHandMiddle1
								{
									OFFSET 18.476105 0.000000 0.000000
									CHANNELS 3 Xrotation Yrotation Zrotation
									JOINT newVegas:LeftHandMiddle2
									{
										OFFSET 3.324875 0.000000 0.000000
										CHANNELS 3 Xrotation Yrotation Zrotation
										JOINT newVegas:LeftHandMiddle3
										{
											OFFSET 4.596550 0.000000 0.000000
											CHANNELS 3 Xrotation Yrotation Zrotation
											End Site
											{
												OFFSET 0.057701 4.578827 0.399218
											}
										}
									}
								}
								JOINT newVegas:LeftHandRing1
								{
									OFFSET 17.732719 0.121887 -4.201567
									CHANNELS 3 Xrotation Yrotation Zrotation
									JOINT newVegas:LeftHandRing2
									{
										OFFSET 2.733170 0.000000 0.000000
										CHANNELS 3 Xrotation Yrotation Zrotation
										JOINT newVegas:LeftHandRing3
										{
											OFFSET 3.178268 0.000000 0.000000
											CHANNELS 3 Xrotation Yrotation Zrotation
											End Site
											{
												OFFSET 0.119102 3.170624 0.185394
											}
										}
									}
								}
								JOINT newVegas:LeftHandPinky1
								{
									OFFSET 15.989624 -0.606689 -7.535461
									CHANNELS 3 Xrotation Yrotation Zrotation
									JOINT newVegas:LeftHandPinky2
									{
										OFFSET 2.538986 0.000000 0.000000
										CHANNELS 3 Xrotation Yrotation Zrotation
										JOINT newVegas:LeftHandPinky3
										{
											OFFSET 2.593102 0.000000 0.000000
											CHANNELS 3 Xrotation Yrotation Zrotation
											End Site
											{
												OFFSET -0.150902 2.584198 0.152708
											}
										}
									}
								}
							}
							JOINT newVegas:Left_Sleeve
							{
								OFFSET 0.267448 -0.649796 0.577675
								CHANNELS 3 Xrotation Yrotation Zrotation
								End Site
								{
									OFFSET 0.000000 15.991241 0.000000
								}
							}
							JOINT newVegas:Left_CapeC
							{
								OFFSET 15.715958 -8.608795 -6.935905
								CHANNELS 3 Xrotation Yrotation Zrotation
								JOINT newVegas:Left_CapeC1
								{
									OFFSET 0.000000 -8.688499 0.000000
									CHANNELS 3 Xrotation Yrotation Zrotation
									End Site
									{
										OFFSET 0.000000 8.688499 0.000000
									}
								}
							}
						}
						JOINT newVegas:Left_CapeB
						{
							OFFSET 26.118385 -8.608795 -7.079235
							CHANNELS 3 Xrotation Yrotation Zrotation
							JOINT newVegas:Left_CapeB1
							{
								OFFSET 0.000000 -8.688499 0.000000
								CHANNELS 3 Xrotation Yrotation Zrotation
								End Site
								{
									OFFSET 0.000000 8.688499 0.000000
								}
							}
						}
						JOINT newVegas:Left_CapeA
						{
							OFFSET 5.115639 -8.608795 -10.395809
							CHANNELS 3 Xrotation Yrotation Zrotation
							JOINT newVegas:Left_CapeA1
							{
								OFFSET 0.000000 -8.688499 0.000000
								CHANNELS 3 Xrotation Yrotation Zrotation
								End Site
								{
									OFFSET 0.000000 8.688499 0.000000
								}
							}
						}
					}
				}
				JOINT newVegas:RightShoulder
				{
					OFFSET -15.263000 10.923401 -0.547700
					CHANNELS 3 Xrotation Yrotation Zrotation
					JOINT newVegas:RightArm
					{
						OFFSET -25.438599 -2.830597 -13.032500
						CHANNELS 3 Xrotation Yrotation Zrotation
						JOINT newVegas:RightForeArm
						{
							OFFSET -29.960503 0.000000 0.000000
							CHANNELS 3 Xrotation Yrotation Zrotation
							JOINT newVegas:RightHand
							{
								OFFSET -27.849251 0.000000 0.000000
								CHANNELS 3 Xrotation Yrotation Zrotation
								JOINT newVegas:RightHandThumb1
								{
									OFFSET -4.487587 -3.305161 6.305391
									CHANNELS 3 Xrotation Yrotation Zrotation
									JOINT newVegas:RightHandThumb2
									{
										OFFSET -5.480453 -3.164139 3.164143
										CHANNELS 3 Xrotation Yrotation Zrotation
										JOINT newVegas:RightHandThumb3
										{
											OFFSET -5.159721 -2.978973 2.978967
											CHANNELS 3 Xrotation Yrotation Zrotation
											End Site
											{
												OFFSET -2.494507 5.926697 1.738678
											}
										}
									}
								}
								JOINT newVegas:RightHandIndex1
								{
									OFFSET -18.578728 -0.527832 5.208049
									CHANNELS 3 Xrotation Yrotation Zrotation
									JOINT newVegas:RightHandIndex2
									{
										OFFSET -3.192009 0.000000 0.000000
										CHANNELS 3 Xrotation Yrotation Zrotation
										JOINT newVegas:RightHandIndex3
										{
											OFFSET -3.835129 0.000000 0.000000
											CHANNELS 3 Xrotation Yrotation Zrotation
											End Site
											{
												OFFSET 0.034599 3.816971 0.371180
											}
										}
									}
								}
								JOINT newVegas:RightHandMiddle1
								{
									OFFSET -18.476105 0.000000 0.000000
									CHANNELS 3 Xrotation Yrotation Zrotation
									JOINT newVegas:RightHandMiddle2
									{
										OFFSET -3.324875 0.000000 0.000000
										CHANNELS 3 Xrotation Yrotation Zrotation
										JOINT newVegas:RightHandMiddle3
										{
											OFFSET -4.596550 0.000000 0.000000
											CHANNELS 3 Xrotation Yrotation Zrotation
											End Site
											{
												OFFSET -0.057701 4.578827 0.399218
											}
										}
									}
								}
								JOINT newVegas:RightHandRing1
								{
									OFFSET -17.732719 0.121887 -4.201567
									CHANNELS 3 Xrotation Yrotation Zrotation
									JOINT newVegas:RightHandRing2
									{
										OFFSET -2.733170 0.000000 0.000000
										CHANNELS 3 Xrotation Yrotation Zrotation
										JOINT newVegas:RightHandRing3
										{
											OFFSET -3.178268 0.000000 0.000000
											CHANNELS 3 Xrotation Yrotation Zrotation
											End Site
											{
												OFFSET -0.119102 3.170624 0.185394
											}
										}
									}
								}
								JOINT newVegas:RightHandPinky1
								{
									OFFSET -15.989624 -0.606689 -7.535461
									CHANNELS 3 Xrotation Yrotation Zrotation
									JOINT newVegas:RightHandPinky2
									{
										OFFSET -2.538986 0.000000 0.000000
										CHANNELS 3 Xrotation Yrotation Zrotation
										JOINT newVegas:RightHandPinky3
										{
											OFFSET -2.593102 0.000000 0.000000
											CHANNELS 3 Xrotation Yrotation Zrotation
											End Site
											{
												OFFSET 0.150902 2.584198 0.152708
											}
										}
									}
								}
							}
							JOINT newVegas:Right_CapeC
							{
								OFFSET -15.715958 -8.608795 -6.935905
								CHANNELS 3 Xrotation Yrotation Zrotation
								JOINT newVegas:Right_CapeC1
								{
									OFFSET 0.000000 -8.688499 0.000000
									CHANNELS 3 Xrotation Yrotation Zrotation
									End Site
									{
										OFFSET 0.000000 8.688499 0.000000
									}
								}
							}
							JOINT newVegas:Right_Sleeve
							{
								OFFSET -0.267448 -0.649994 0.577675
								CHANNELS 3 Xrotation Yrotation Zrotation
								End Site
								{
									OFFSET 0.000000 15.991302 0.000000
								}
							}
						}
						JOINT newVegas:Right_CapeA
						{
							OFFSET -5.115540 -8.608795 -10.395824
							CHANNELS 3 Xrotation Yrotation Zrotation
							JOINT newVegas:Right_CapeA1
							{
								OFFSET 0.000000 -8.688499 0.000000
								CHANNELS 3 Xrotation Yrotation Zrotation
								End Site
								{
									OFFSET 0.000000 8.688499 0.000000
								}
							}
						}
						JOINT newVegas:Right_CapeB
						{
							OFFSET -26.118187 -8.608795 -7.079266
							CHANNELS 3 Xrotation Yrotation Zrotation
							JOINT newVegas:Right_CapeB1
							{
								OFFSET 0.000000 -8.688499 0.000000
								CHANNELS 3 Xrotation Yrotation Zrotation
								End Site
								{
									OFFSET 0.000000 8.688499 0.000000
								}
							}
						}
					}
				}
				JOINT newVegas:Left_Collar
				{
					OFFSET 18.625099 8.655502 8.828100
					CHANNELS 3 Xrotation Yrotation Zrotation
					JOINT newVegas:Left_Collar1
					{
						OFFSET 14.783401 10.540405 -1.259500
						CHANNELS 3 Xrotation Yrotation Zrotation
						End Site
						{
							OFFSET 0.000000 18.199875 0.000000
						}
					}
				}
				JOINT newVegas:Collar_Back
				{
					OFFSET 0.000000 15.630707 -20.132601
					CHANNELS 3 Xrotation Yrotation Zrotation
					End Site
					{
						OFFSET 0.000000 22.523010 0.000000
					}
				}
				JOINT newVegas:Left_Peck
				{
					OFFSET 17.239599 -5.132599 25.482599
					CHANNELS 3 Xrotation Yrotation Zrotation
					End Site
					{
						OFFSET 0.000000 22.523010 0.000000
					}
				}
				JOINT newVegas:Right_Peck
				{
					OFFSET -17.239599 -5.132202 25.482599
					CHANNELS 3 Xrotation Yrotation Zrotation
					End Site
					{
						OFFSET 0.000000 22.523010 0.000000
					}
				}
				JOINT newVegas:Right_Collar
				{
					OFFSET -18.625099 8.655792 8.828100
					CHANNELS 3 Xrotation Yrotation Zrotation
					JOINT newVegas:Right_Collar1
					{
						OFFSET -14.783401 10.539993 -1.259500
						CHANNELS 3 Xrotation Yrotation Zrotation
						End Site
						{
							OFFSET 0.000000 18.199631 0.000000
						}
					}
				}
			}
		}
		JOINT newVegas:Belly
		{
			OFFSET 0.000000 -6.540398 9.014299
			CHANNELS 3 Xrotation Yrotation Zrotation
			End Site
			{
				OFFSET 0.000000 11.566666 0.000000
			}
		}
	}
	JOINT newVegas:ElvisFacialAnim_Joint
	{
		OFFSET 1.000000 -95.330101 -8.825800
		CHANNELS 3 Xrotation Yrotation Zrotation
		End Site
		{
			OFFSET 0.000000 35.315800 0.000000
		}
	}
}
MOTION
Frames: 4
Frame Time: 0.033333
-1.413819 82.538040 3.310144 10.910615 -33.249617 4.060897 -0.000000 0.000001 -0.000000 -40.223783 2.137677 27.498287 51.244567 -13.704816 12.111679 -21.239650 5.220174 -18.277660 0.000000 0.000001 -0.000001 0.000001 -0.000003 -0.000002 -47.677036 -1.383258 -27.783562 47.606419 -6.142775 2.148894 -1.916326 -1.792918 19.039344 0.000000 -0.000001 0.000000 -0.000000 -0.000002 -0.000000 18.495444 4.876157 3.221705 5.378491 6.531221 6.227793 0.762313 1.611509 -0.583543 -1.769815 1.099667 -0.766382 -1.769814 1.099659 -0.766387 0.000001 -0.000000 -0.000000 -1.769807 1.099640 -0.766365 -1.769791 1.099713 -0.766394 -0.000001 -0.000001 -0.000000 0.000001 -0.000000 0.000001 1.754720 -19.853948 -5.828380 -34.538446 -14.585550 -79.479735 -0.732305 -45.868265 -8.925926 -36.569345 -14.959380 10.907489 -7.471933 1.860677 -7.166927 30.987001 27.310537 -4.510887 -0.000001 0.000001 -0.000003 -4.707162 11.366747 -75.716533 -0.816413 3.073992 -46.874622 0.000001 0.000000 0.000000 1.623344 16.580935 -84.691299 0.018021 0.022027 -72.884874 0.000001 0.000001 -0.000000 -6.436862 23.133419 -89.739834 0.012873 0.975917 -51.002983 -0.000001 -0.000001 0.000000 -17.080761 22.136886 -87.150113 0.011705 0.023147 -58.127266 -0.000001 -0.000002 -0.000000 -0.000000 -0.000001 -0.000002 -0.000000 -0.000001 -0.000002 -0.000001 -0.000001 -0.000001 0.000001 -0.000002 -0.000001 0.000001 -0.000002 -0.000001 0.000001 -0.000002 -0.000001 -0.000001 -0.000002 -0.000000 12.036513 36.683242 -30.312875 -35.147317 14.208163 76.687117 -4.039267 59.722901 -11.373463 -20.759679 1.061969 9.340508 9.347186 2.810537 -11.364522 16.169001 -43.265990 15.843544 0.000001 -0.000002 -0.000001 17.076788 -0.396561 31.924355 -0.204394 -0.284200 112.811557 -0.000000 0.000000 0.000001 9.205463 -5.035881 102.738100 0.014963 -0.019199 61.018513 0.000000 -0.000001 0.000000 5.569132 -8.935193 107.329101 0.547966 -0.005782 41.263717 -0.000000 -0.000001 0.000000 6.511263 -17.148264 98.228038 0.007409 -0.015739 43.845744 -0.000001 -0.000000 -0.000001 0.000001 -0.000002 0.000000 0.000001 -0.000002 0.000000 0.000001 -0.000002 -0.000000 0.000002 0.000002 -0.000001 0.000002 0.000003 -0.000002 0.000002 0.000002 -0.000001 0.000002 0.000003 -0.000002 -0.000000 -0.000002 0.000002 -0.000000 -0.000002 0.000002 -0.000000 -0.000002 0.000002 -0.000000 -0.000002 0.000002 -0.000000 -0.000002 0.000002 -0.000000 -0.000002 0.000002 -0.000000 -0.000002 0.000002 -0.000001 -0.000001 0.000002 -0.000000 0.000001 -0.000000 
-6.807794 82.501083 2.484765 10.536800 -34.489235 2.602087 -0.000000 0.000001 -0.000000 -38.452657 0.973077 32.309151 48.763033 -13.720047 13.798107 -14.970142 4.997706 -22.888633 -0.000000 -0.000001 0.000000 -0.000000 -0.000001 -0.000002 -46.568971 -2.468393 -23.219761 52.723285 -6.405119 2.713872 -9.317169 -2.165832 18.638517 -0.000000 -0.000000 -0.000000 0.000000 -0.000000 -0.000000 17.155796 5.544065 -0.286870 5.903300 6.731163 8.235405 1.308999 1.729434 1.467160 -1.722055 1.157948 -0.838731 -1.722048 1.157953 -0.838743 -0.000000 0.000001 0.000001 -1.722061 1.157933 -0.838724 -1.721974 1.157957 -0.838729 -0.000000 -0.000000 0.000000 -0.000000 0.000001 -0.000001 1.699921 -19.949511 -6.332059 -33.178846 -13.797675 -77.977661 -0.827188 -48.179181 -9.692347 -36.106064 -13.933233 11.968401 -7.471932 1.860681 -7.166934 30.987004 27.310535 -4.510888 0.000005 -0.000002 -0.000003 -4.707161 11.366747 -75.716540 -0.816409 3.073992 -46.874622 0.000000 -0.000001 -0.000001 1.623342 16.580938 -84.691299 0.018017 0.022030 -72.884874 0.000001 0.000002 0.000000 -6.436860 23.133417 -89.739841 0.012876 0.975915 -51.002983 -0.000000 -0.000002 -0.000001 -17.080756 22.136887 -87.150120 0.011710 0.023148 -58.127266 0.000000 -0.000002 -0.000000 0.000001 0.000001 0.000001 0.000001 0.000001 0.000001 -0.000000 0.000001 0.000001 -0.000002 0.000000 0.000001 -0.000002 0.000000 0.000001 -0.000002 0.000000 0.000001 -0.000004 -0.000000 0.000000 12.241906 36.584761 -30.754528 -35.904098 14.627146 77.417032 -4.145164 59.436723 -11.484073 -21.116269 1.383920 9.287282 9.347183 2.810539 -11.364526 16.169011 -43.265990 15.843549 -0.000000 -0.000001 0.000001 17.076788 -0.396559 31.924352 -0.204394 -0.284200 112.811557 0.000000 -0.000000 -0.000001 9.205463 -5.035882 102.738094 0.014965 -0.019201 61.018519 0.000000 0.000000 -0.000000 5.569133 -8.935193 107.329101 0.547969 -0.005787 41.263717 0.000000 0.000002 0.000000 6.511261 -17.148261 98.228031 0.007408 -0.015737 43.845740 0.000001 0.000002 -0.000001 -0.000001 -0.000001 -0.000000 0.000000 -0.000001 -0.000001 -0.000001 -0.000001 -0.000001 0.000002 0.000002 -0.000001 0.000001 0.000003 -0.000001 0.000002 0.000002 -0.000001 0.000001 0.000003 -0.000001 0.000002 -0.000000 -0.000000 0.000002 -0.000000 -0.000000 0.000002 -0.000000 -0.000000 0.000002 -0.000000 -0.000000 0.000002 -0.000000 -0.000000 0.000002 -0.000000 -0.000000 0.000002 -0.000000 -0.000000 0.000000 -0.000002 0.000001 -0.000000 0.000001 -0.000000 
-12.039280 82.740410 1.776899 10.049575 -35.286188 1.596511 -0.000000 0.000002 -0.000000 -39.210002 -2.113375 32.596227 49.201456 -9.596185 16.842263 -4.161353 2.472160 -23.365857 -0.000000 -0.000001 -0.000000 0.000001 -0.000001 0.000003 -45.126066 -4.067373 -19.195652 56.742620 -6.498000 3.942881 -15.863374 -1.741059 15.294988 -0.000000 0.000001 -0.000000 0.000001 -0.000003 0.000001 16.342916 5.706177 -3.727802 6.222381 6.924683 9.984956 1.638006 1.810847 3.277167 -1.644067 1.191243 -0.915210 -1.644041 1.191236 -0.915213 0.000002 -0.000000 -0.000001 -1.644051 1.191247 -0.915222 -1.643979 1.191207 -0.915203 -0.000000 0.000001 -0.000002 0.000002 -0.000000 -0.000000 1.373686 -19.984193 -6.930468 -31.394879 -12.703663 -76.346099 -0.907704 -50.776886 -10.603728 -35.684576 -12.783905 12.969847 -7.471930 1.860672 -7.166930 30.987004 27.310539 -4.510887 -0.000002 0.000001 -0.000003 -4.707159 11.366741 -75.716533 -0.816411 3.073991 -46.874615 -0.000002 -0.000002 0.000001 1.623342 16.580933 -84.691293 0.018015 0.022029 -72.884874 -0.000000 0.000001 0.000000 -6.436862 23.133420 -89.739834 0.012873 0.975916 -51.002986 -0.000001 -0.000001 0.000000 -17.080759 22.136880 -87.150113 0.011703 0.023150 -58.127266 -0.000000 -0.000003 -0.000000 0.000001 -0.000000 -0.000001 0.000001 -0.000000 -0.000001 0.000001 -0.000000 -0.000001 -0.000002 0.000000 0.000000 -0.000001 -0.000001 0.000000 -0.000002 0.000000 0.000000 -0.000003 -0.000001 -0.000000 12.533810 36.582210 -31.220207 -36.698156 15.065775 78.143511 -4.149543 59.194176 -11.601332 -21.512736 1.677872 9.022676 9.347182 2.810539 -11.364520 16.169008 -43.265990 15.843546 0.000000 -0.000003 -0.000003 17.076789 -0.396560 31.924352 -0.204395 -0.284200 112.811557 -0.000001 -0.000000 -0.000001 9.205463 -5.035878 102.738094 0.014964 -0.019201 61.018513 -0.000000 -0.000000 0.000000 5.569134 -8.935189 107.329101 0.547972 -0.005785 41.263717 0.000001 -0.000001 -0.000000 6.511261 -17.148261 98.228031 0.007411 -0.015737 43.845740 0.000002 0.000003 0.000001 -0.000000 -0.000002 0.000003 0.000000 -0.000002 0.000003 -0.000000 -0.000002 0.000002 0.000003 -0.000002 0.000000 0.000003 -0.000001 0.000000 0.000003 -0.000002 0.000000 0.000003 -0.000001 0.000001 -0.000000 0.000000 -0.000001 -0.000000 0.000000 -0.000001 -0.000000 0.000000 -0.000001 -0.000000 0.000000 -0.000001 -0.000000 0.000000 -0.000001 -0.000000 0.000000 -0.000001 -0.000000 0.000000 -0.000001 0.000000 0.000000 -0.000001 -0.000000 0.000002 -0.000000 
-16.817202 82.748322 1.409988 9.540936 -35.532406 0.872950 -0.000000 0.000005 -0.000000 -42.350065 -7.932503 28.117244 49.824102 -3.277089 20.116855 15.425118 -1.619220 -19.588475 0.000002 0.000000 -0.000001 0.000002 0.000003 -0.000002 -43.031418 -5.695263 -15.658029 59.849703 -7.264537 4.878809 -21.628106 -1.096757 12.212923 -0.000000 0.000001 -0.000000 0.000002 0.000000 0.000000 15.828945 5.535641 -5.945987 6.587522 7.000713 11.092994 2.016544 1.816595 4.443101 -1.627870 1.231761 -0.967843 -1.627880 1.231753 -0.967829 -0.000000 0.000000 -0.000000 -1.627877 1.231771 -0.967840 -1.627870 1.231754 -0.967840 -0.000001 -0.000002 0.000001 -0.000000 0.000000 -0.000000 1.344523 -19.835949 -7.199550 -30.391852 -12.039720 -75.264703 -1.021435 -52.913274 -11.004278 -35.426801 -11.630305 13.500024 -7.471933 1.860684 -7.166928 30.987008 27.310535 -4.510887 0.000002 0.000004 -0.000001 -4.707159 11.366747 -75.716533 -0.816415 3.073992 -46.874622 -0.000002 0.000001 0.000000 1.623343 16.580940 -84.691299 0.018020 0.022027 -72.884874 0.000000 0.000001 -0.000000 -6.436860 23.133419 -89.739834 0.012878 0.975918 -51.002983 -0.000000 0.000001 -0.000000 -17.080756 22.136884 -87.150113 0.011705 0.023151 -58.127266 0.000000 -0.000002 -0.000000 0.000000 -0.000005 -0.000000 0.000000 -0.000005 -0.000000 -0.000000 -0.000004 0.000000 -0.000001 -0.000001 0.000001 -0.000001 -0.000001 0.000001 -0.000001 -0.000001 0.000001 -0.000003 -0.000001 0.000000 12.702561 36.502228 -31.668609 -37.524602 15.524959 78.645995 -4.141811 59.075344 -11.628287 -21.934785 1.805063 8.571350 9.347185 2.810539 -11.364523 16.169015 -43.265994 15.843551 0.000000 -0.000006 -0.000003 17.076788 -0.396559 31.924352 -0.204393 -0.284200 112.811564 0.000000 0.000001 -0.000000 9.205463 -5.035882 102.738087 0.014963 -0.019199 61.018513 0.000000 0.000000 -0.000001 5.569131 -8.935194 107.329101 0.547964 -0.005780 41.263710 0.000001 -0.000001 0.000001 6.511261 -17.148262 98.228031 0.007409 -0.015735 43.845740 -0.000001 -0.000007 -0.000000 -0.000000 0.000001 -0.000000 0.000000 -0.000002 0.000001 -0.000000 0.000001 -0.000001 0.000001 0.000001 -0.000000 0.000001 0.000002 -0.000001 0.000001 0.000001 -0.000000 0.000001 0.000002 -0.000001 0.000001 -0.000000 -0.000002 0.000001 -0.000000 -0.000002 0.000001 -0.000000 -0.000002 0.000001 -0.000000 -0.000002 0.000001 -0.000000 -0.000002 0.000001 -0.000000 -0.000002 0.000001 -0.000000 -0.000002 -0.000001 -0.000001 -0.000000 -0.000000 0.000005 -0.000000 
